<?xml version="1.0" encoding="UTF-8"?>
<svg xmlns="http://www.w3.org/2000/svg" viewBox="0 0 256 256">		
	<rect fill="black" x="256" y="256" width="0" height="0"/>
	<rect fill="black" x="0" y="0" width="0" height="0"/>
	<path fill="black" d="M49.9,82.4l5.7-3.2c5.4,11,13.9,16.6,25.4,16.6s23.3-9,23.3-19.8-4.9-12.5-13.5-16.6c-2.2-1.2-5.9-2.5-10.8-4.4-4.9-1.9-8.3-3.4-10.3-4.4-10-4.9-15-11.8-15-20.8,0-13.4,10.3-23.3,27.1-23.3s20.8,4.7,26.5,14l-4.9,3.4c-4.4-7.4-11.5-11.2-21.3-11.2s-20.8,6.9-20.8,16.9,3.9,11.7,11.7,15.6c1.9.8,5.4,2.4,10.5,4.4,5.1,2,9,3.7,11.5,4.9,10.7,4.9,16.2,10.5,16.2,20.8s-2.9,13.9-8.5,19.1c-5.6,5.1-12.7,7.6-21.3,7.6-13.4,0-25.2-6.6-31.4-19.6Z"/>
	<path fill="black" d="M200,9.5h5.9v83.4c0,14-3.7,25.2-11.1,33.3-7.3,8.1-17.3,12.2-30.1,12.2s-24.2-4.2-34.5-12.8l3.3-5.4c9.7,7.9,20.2,12,31.3,12,21.9,0,35-14.7,35-39.2v-15.2c-6.5,14-19,22.7-34.1,22.7s-21.2-4.4-28.9-13.4c-7.6-9-11.4-20.1-11.4-33.1s3.8-24,11.4-33c7.8-9,17.3-13.5,28.8-13.5s27.8,8.6,34.4,22.3V9.5ZM190.4,82.2c6.7-7.9,10-17.6,10-28.9s-3.3-20.6-10-28.2c-6.5-7.6-14.9-11.5-25-11.5s-18,3.9-24.3,11.5c-6.4,7.6-9.6,17.2-9.6,28.7s3.2,21,9.6,28.7c6.4,7.6,14.5,11.5,24.3,11.5s18.4-3.9,25-11.8Z"/>
	<path fill="black" d="M111.6,240.9c-6.2,5.2-13.5,7.9-21.9,7.9-15.7,0-23.6-11.7-23.6-30.4v-55.8h-14.5v-6.3h14.5v-32h6.1v32h36.5v6.3h-36.5v55.3c0,16.1,6.2,24.7,18,24.7s13.2-2.2,18.6-6.8l2.9,5.1Z"/>
	<path fill="black" d="M139.2,235.6c-7.6-9-11.4-20.3-11.4-34s4-25.4,11.7-34.2c7.9-9,18-13.4,30-13.4s30,8.8,36.2,23.2l-5,3c-5.3-12.2-17.2-20-31.2-20s-18.9,3.9-25.6,11.5c-6.7,7.6-10,17.6-10,29.8s3.2,22,9.7,29.6c6.5,7.6,14.9,11.3,25,11.3s26.2-8.1,31.8-20.1l4.9,3.4c-6.7,14.2-20.8,23-36.7,23s-21.6-4.4-29.4-13.2Z"/>
    <style>
      @media (prefers-color-scheme: light) { :root { filter: brightness(0.8); } }
      @media (prefers-color-scheme: dark) { :root { filter: invert(100%) brightness(1.3); } }
    </style>
</svg>
